<?xml version="1.0" standalone="no"?>
<!DOCTYPE svg PUBLIC "-//W3C//DTD SVG 20010904//EN"
 "http://www.w3.org/TR/2001/REC-SVG-20010904/DTD/svg10.dtd">
<svg version="1.0" xmlns="http://www.w3.org/2000/svg"
 width="260.000000pt" height="260.000000pt" viewBox="0 0 260.000000 260.000000"
 preserveAspectRatio="xMidYMid meet">
<metadata>
Created by potrace 1.11, written by Peter Selinger 2001-2013
</metadata>
<g transform="translate(0.000000,260.000000) scale(0.100000,-0.100000)"
fill="#000000" stroke="none">
<path d="M332 2413 c-69 -34 -66 -15 -72 -555 -4 -409 -3 -488 9 -488 10 0 11
-3 2 -14 -9 -10 -11 -47 -7 -122 6 -106 5 -109 -20 -135 -29 -31 -47 -102 -31
-118 6 -6 8 -11 4 -11 -4 0 7 -26 23 -57 l31 -58 -2 -291 c-2 -264 0 -293 16
-318 39 -58 -10 -56 1022 -57 l948 -1 43 39 42 40 2 494 c1 272 3 514 4 539 1
25 -4 51 -10 59 -9 12 -8 14 4 9 12 -4 15 2 12 34 -3 31 1 44 22 65 14 14 30
42 36 62 9 32 6 44 -25 107 -19 40 -35 79 -35 87 0 9 38 90 83 180 46 91 85
179 86 196 5 86 2 98 -25 95 -33 -3 -38 -8 -94 -86 l-50 -72 0 139 c0 170 -8
195 -71 229 l-47 26 -933 0 c-846 0 -937 -2 -967 -17z"/>
</g>
</svg>
