<?xml version="1.0" standalone="no"?>
<!DOCTYPE svg PUBLIC "-//W3C//DTD SVG 20010904//EN"
 "http://www.w3.org/TR/2001/REC-SVG-20010904/DTD/svg10.dtd">
<svg version="1.0" xmlns="http://www.w3.org/2000/svg"
 width="260.000000pt" height="260.000000pt" viewBox="0 0 260.000000 260.000000"
 preserveAspectRatio="xMidYMid meet">
<metadata>
Created by potrace 1.11, written by Peter Selinger 2001-2013
</metadata>
<g transform="translate(0.000000,260.000000) scale(0.100000,-0.100000)"
fill="#000000" stroke="none">
<path d="M342 2393 c-41 -20 -67 -64 -49 -83 9 -10 9 -14 0 -17 -17 -6 -18
-119 -2 -129 9 -5 10 -106 6 -386 -3 -208 -8 -382 -12 -387 -3 -5 0 -11 7 -13
9 -3 7 -10 -6 -23 -15 -15 -17 -28 -12 -69 4 -28 9 -77 13 -108 5 -59 10 -67
30 -47 10 10 28 15 63 19 12 1 12 3 2 7 -16 6 49 46 91 57 14 3 32 12 39 19
22 22 108 66 108 56 0 -6 5 -7 10 -4 6 4 8 11 5 16 -4 5 -1 9 5 9 6 0 8 5 4
12 -4 7 -3 8 4 4 6 -4 44 10 84 31 40 21 79 37 86 36 6 0 12 3 12 7 0 13 100
61 112 54 6 -4 8 -3 5 3 -4 7 20 25 56 43 34 18 118 63 187 100 248 133 277
149 404 214 70 36 135 66 143 66 8 0 12 3 9 8 -7 11 284 164 324 169 26 3 44
-2 69 -19 30 -20 62 -69 43 -67 -17 3 -32 -2 -32 -10 0 -5 6 -9 13 -8 36 1 49
-4 43 -18 -3 -8 1 -18 8 -22 7 -5 21 -20 31 -35 13 -22 14 -28 4 -28 -8 0 -23
-3 -35 -6 -17 -4 -26 2 -43 31 -12 20 -19 41 -15 46 3 5 -2 12 -10 15 -9 3
-16 12 -16 20 0 7 -11 21 -25 30 -25 16 -28 16 -117 -30 -50 -26 -85 -40 -78
-31 11 13 10 14 -4 9 -9 -3 -16 -12 -16 -18 0 -14 -180 -112 -180 -99 0 4 -6
0 -14 -9 -13 -17 -104 -63 -118 -60 -5 1 -8 -3 -8 -9 0 -5 -5 -7 -12 -3 -6 4
-16 1 -22 -7 -17 -23 -286 -169 -310 -169 -8 0 -22 -7 -30 -16 -16 -15 -101
-64 -113 -64 -3 0 0 7 7 15 20 24 3 17 -23 -9 -29 -29 -66 -50 -92 -52 -28 -3
-79 -24 -73 -30 3 -2 17 0 32 5 36 14 33 7 -9 -19 -23 -14 -43 -19 -57 -15
-17 4 -19 4 -9 -3 11 -8 8 -13 -15 -26 -20 -10 -24 -15 -11 -16 24 0 21 -17
-5 -30 -22 -11 -22 -10 -4 4 19 16 19 16 -5 16 -14 0 -76 -27 -138 -60 -116
-62 -177 -93 -221 -115 -14 -7 -30 -10 -37 -8 -6 2 -17 -5 -23 -16 -6 -12 -15
-21 -21 -21 -6 0 -7 5 -4 10 9 15 -1 12 -45 -10 -45 -23 -53 -35 -15 -20 31
12 33 -2 2 -15 -16 -7 -23 -20 -25 -49 -2 -21 1 -43 7 -49 6 -6 11 -19 11 -29
0 -10 4 -18 8 -18 9 0 36 -48 37 -65 0 -5 9 -19 19 -29 19 -19 18 -19 -8 -33
-15 -8 -26 -17 -23 -20 3 -2 15 1 27 7 12 6 24 9 28 6 3 -3 0 -6 -6 -6 -7 0
-12 -6 -12 -14 0 -8 -7 -17 -16 -20 -8 -3 -12 -2 -9 4 3 6 0 10 -8 10 -27 0
-30 33 -5 52 19 14 20 18 6 18 -9 0 -20 -5 -24 -12 -5 -7 -11 -5 -21 7 -11 16
-13 -24 -13 -262 0 -272 1 -281 22 -308 44 -56 30 -55 756 -55 368 0 785 3
928 7 l259 6 33 33 32 32 0 470 c0 290 4 481 10 497 7 17 7 33 0 45 -8 16 -26
19 -122 22 -77 3 -122 0 -140 -8 -17 -7 -28 -8 -28 -3 0 6 -5 7 -10 4 -6 -4
-8 -10 -5 -15 2 -4 -10 -14 -28 -21 -17 -7 -61 -29 -97 -48 -36 -20 -69 -36
-75 -37 -5 0 -16 -2 -23 -2 -7 -1 -10 -7 -7 -12 3 -5 1 -10 -4 -10 -6 0 -11 5
-11 10 0 16 -36 12 -51 -6 -12 -15 -11 -16 10 -9 16 5 21 4 17 -4 -4 -6 -16
-11 -26 -11 -10 0 -25 -7 -33 -15 -8 -8 -17 -11 -21 -8 -3 4 -6 1 -6 -5 0 -7
-5 -12 -12 -12 -6 0 -45 -16 -87 -36 -42 -20 -98 -45 -125 -56 -97 -38 -162
-72 -143 -76 39 -8 19 -24 -125 -101 -43 -22 -78 -37 -78 -32 0 17 60 60 99
71 22 6 43 15 46 20 3 6 15 10 26 10 14 0 19 6 17 17 -5 26 -22 26 -52 -2 -29
-26 -46 -32 -46 -14 0 5 5 7 10 4 6 -3 10 -1 10 4 0 6 39 30 87 54 49 23 90
45 93 48 3 3 21 14 40 24 34 17 34 17 20 0 -14 -17 -13 -17 10 -10 14 4 30 12
35 18 7 7 6 8 -2 3 -7 -4 -13 -2 -13 3 0 6 10 11 23 11 13 0 32 7 43 16 18 14
18 15 -4 4 -13 -7 -26 -9 -28 -7 -3 3 20 17 51 32 30 15 58 31 61 36 3 5 14 9
25 9 12 0 39 13 62 29 26 19 59 32 87 35 50 5 108 24 77 25 -10 1 -26 -3 -36
-8 -9 -5 -23 -6 -30 -1 -10 6 -8 10 10 16 13 4 28 7 34 5 5 -1 14 4 20 11 5 8
53 38 105 67 52 30 98 58 101 63 3 5 10 8 14 7 4 -1 58 24 121 57 l114 59 0
48 c0 26 -4 47 -8 47 -5 0 -13 10 -19 22 -10 22 -10 22 -27 -10 -10 -19 -20
-31 -23 -28 -7 7 25 84 45 109 13 14 13 17 1 17 -9 1 -7 7 8 19 12 10 58 91
102 181 60 122 79 170 75 189 -4 18 -3 22 4 13 7 -11 10 -10 16 3 9 25 7 35
-6 33 -7 -2 -12 3 -10 10 6 31 -22 5 -85 -79 l-68 -91 -5 171 -5 171 -33 32
-32 33 -943 2 c-857 3 -945 1 -975 -14z m2050 -454 c-18 -27 -32 -55 -32 -60
0 -17 -73 -149 -82 -149 -5 0 -6 -5 -3 -10 3 -6 -1 -17 -10 -26 -13 -14 -19
-14 -28 -4 -8 9 -8 11 -1 7 17 -10 27 23 13 39 -9 11 -8 14 3 14 20 0 41 25
68 80 40 79 94 170 98 165 3 -3 -9 -28 -26 -56z m-422 -24 c0 -2 -18 -14 -40
-25 -22 -11 -40 -18 -40 -15 0 2 17 13 38 24 42 23 42 23 42 16z m-150 -80 c0
-2 -10 -9 -22 -15 -22 -11 -22 -10 -4 4 21 17 26 19 26 11z m457 -14 c10 -16
8 -22 -13 -36 -27 -17 -38 -14 -54 15 -7 13 -6 19 6 24 10 4 13 2 8 -7 -4 -6
2 -4 12 6 23 21 26 21 41 -2z m-287 -1 c-13 -8 -12 -10 3 -10 9 0 17 5 17 10
0 15 27 12 44 -6 9 -8 16 -12 16 -8 0 4 11 -4 24 -17 24 -25 68 -100 62 -107
-2 -2 -20 -5 -40 -8 -28 -3 -34 -1 -30 11 4 8 15 15 25 15 10 0 19 5 19 10 0
18 -35 11 -53 -11 -20 -23 -20 -25 10 -36 17 -7 19 -10 7 -20 -10 -11 -18 -5
-38 29 -19 31 -22 44 -13 50 8 5 7 8 -4 8 -24 0 -34 32 -15 46 20 14 9 25 -19
18 -13 -3 -26 -1 -30 5 -3 6 -11 9 -16 6 -10 -7 -12 8 -2 18 3 4 16 7 27 7 17
0 18 -2 6 -10z m-56 -44 c9 -13 7 -19 -6 -27 -26 -14 -23 -32 2 -19 24 13 44
4 36 -16 -3 -8 -1 -14 5 -14 19 0 21 -31 4 -50 -11 -13 -14 -20 -6 -20 7 0 9
-4 6 -10 -3 -5 1 -10 9 -10 8 0 18 5 21 10 3 6 1 10 -5 10 -6 0 -8 5 -4 11 4
8 11 3 20 -12 9 -18 10 -27 1 -38 -10 -12 -9 -14 5 -8 13 5 22 -2 34 -24 8
-17 11 -29 6 -25 -15 9 -60 -18 -59 -36 1 -9 5 -14 9 -12 5 3 5 10 2 16 -5 8
-1 9 10 5 9 -4 15 -3 12 1 -2 4 7 8 21 9 22 1 17 -4 -23 -28 -55 -32 -69 -36
-60 -14 3 8 9 22 13 32 5 12 3 14 -7 8 -10 -6 -12 -4 -7 8 4 11 2 14 -9 10
-17 -6 -18 1 -2 30 10 20 10 21 -5 9 -13 -11 -17 -10 -27 8 -6 12 -9 28 -6 36
3 8 -1 14 -10 14 -23 0 -7 18 34 40 20 10 31 19 24 20 -8 0 -27 -8 -42 -17
-24 -14 -31 -14 -45 -3 -8 7 -14 18 -12 24 2 6 -9 21 -25 33 l-30 21 24 15
c66 41 74 42 92 13z m266 -6 c6 -11 8 -20 6 -20 -3 0 -10 9 -16 20 -6 11 -8
20 -6 20 3 0 10 -9 16 -20z m-495 0 c-3 -5 -12 -10 -18 -10 -7 0 -6 4 3 10 19
12 23 12 15 0z m-35 -15 c0 -2 -10 -9 -22 -15 -22 -11 -22 -10 -4 4 21 17 26
19 26 11z m554 -31 c3 -8 2 -12 -4 -9 -6 3 -10 10 -10 16 0 14 7 11 14 -7z
m-444 -14 c0 -15 -60 -42 -78 -35 -14 5 -10 10 18 25 39 21 60 25 60 10z m6
-35 c-3 -9 0 -15 9 -15 8 0 15 -4 15 -10 0 -16 -15 -12 -33 8 -16 18 -14 32 6
32 5 0 7 -7 3 -15z m-89 -116 c-24 -20 -17 -25 12 -9 15 8 23 1 46 -42 15 -28
22 -47 14 -43 -8 5 -2 -3 14 -18 30 -28 34 -43 15 -50 -8 -3 -6 -6 5 -6 27 -1
20 -17 -15 -32 -32 -14 -31 -14 50 -19 121 -7 102 -24 -35 -30 -109 -5 -123
-8 -180 -37 -68 -36 -73 -37 -73 -24 0 5 14 14 30 21 17 7 29 15 26 17 -2 3
-14 -1 -26 -7 -19 -10 -26 -8 -49 14 -15 14 -37 26 -49 26 -26 0 -28 -9 -8
-36 13 -17 13 -21 -7 -37 l-22 -18 23 11 c16 8 22 8 22 -1 0 -7 9 -9 21 -6 39
10 13 -16 -45 -46 -63 -32 -80 -31 -45 4 16 16 17 21 6 16 -23 -9 -56 51 -35
64 7 5 20 9 29 9 9 0 19 7 23 15 3 8 1 15 -4 15 -6 0 -10 -4 -10 -9 0 -5 -14
-11 -31 -15 -24 -5 -35 -1 -50 17 -26 31 -24 42 13 70 35 28 58 22 77 -19 8
-18 16 -22 38 -18 35 6 43 14 15 14 -27 0 -35 26 -27 93 5 43 3 57 -10 71 -9
9 -21 16 -26 16 -23 0 -5 18 29 29 20 7 43 15 50 18 10 4 9 -2 -3 -20 -14 -22
-20 -63 -15 -119 1 -10 7 -15 15 -11 8 3 38 -15 68 -41 48 -41 59 -46 103 -46
27 0 56 5 64 11 12 8 12 10 1 7 -9 -3 -29 25 -57 76 -39 75 -42 82 -26 95 15
12 15 12 -5 6 -19 -5 -26 0 -40 29 -11 24 -24 36 -37 36 -17 0 -18 2 -6 10 8
5 11 10 5 10 -5 1 12 12 40 25 l50 23 26 -45 27 -46 -21 -18z m463 91 c0 -22
-32 -43 -58 -38 -13 3 -10 8 13 21 17 9 23 17 15 17 -10 1 -9 4 5 10 11 5 21
9 23 9 1 1 2 -8 2 -19z m62 -35 c-24 -50 -42 -69 -42 -45 0 13 53 100 62 100
3 0 -5 -25 -20 -55z m-817 -5 c-3 -5 -12 -10 -18 -10 -7 0 -6 4 3 10 19 12 23
12 15 0z m741 -15 c-18 -14 -22 -30 -5 -19 8 5 8 1 0 -14 -6 -12 -16 -24 -22
-27 -17 -11 -24 5 -11 25 10 16 10 20 0 20 -20 1 18 27 38 27 15 0 15 -1 0
-12z m-327 -46 c23 -41 24 -62 1 -34 -7 8 -21 15 -31 15 -13 0 -19 7 -19 23 0
23 7 37 20 37 3 0 17 -18 29 -41z m361 -5 c0 -3 -12 -25 -26 -50 -14 -24 -23
-44 -20 -44 15 0 -40 -44 -57 -45 -19 -2 -19 -1 -2 12 11 7 22 13 26 13 4 0
20 27 35 60 15 33 31 60 36 60 4 0 8 -3 8 -6z m-920 -9 c0 -2 -10 -9 -22 -15
-22 -11 -22 -10 -4 4 21 17 26 19 26 11z m116 -41 c-3 -8 1 -29 10 -46 13 -25
13 -32 3 -39 -8 -4 -16 -6 -18 -3 -3 3 1 9 9 14 8 6 10 10 4 10 -6 0 -17 -7
-24 -15 -7 -8 -9 -15 -4 -15 9 0 -28 -29 -37 -30 -4 0 -12 14 -19 31 -7 17
-22 34 -33 38 -17 6 -12 12 34 39 61 35 84 40 75 16z m519 7 c3 -5 1 -12 -5
-16 -5 -3 -10 1 -10 9 0 18 6 21 15 7z m355 4 c0 -2 -10 -9 -22 -15 -22 -11
-22 -10 -4 4 21 17 26 19 26 11z m-1105 -35 c-3 -5 -12 -10 -18 -10 -7 0 -6 4
3 10 19 12 23 12 15 0z m785 -29 c0 -3 -18 -16 -40 -29 -22 -12 -40 -21 -40
-19 0 16 32 76 42 80 12 4 38 -18 38 -32z m-1540 -31 c0 -11 -4 -20 -9 -20
-11 0 -22 26 -14 34 12 12 23 5 23 -14z m-40 1 c0 -10 -26 -9 -36 2 -4 4 2 7
14 7 12 0 22 -4 22 -9z m872 -20 c14 -26 14 -32 2 -42 -12 -10 -17 -7 -16 11
0 3 -16 6 -35 7 -44 2 -71 23 -30 23 14 0 32 7 39 15 18 20 21 19 40 -14z
m-778 7 c-3 -4 -12 -8 -20 -8 -8 0 -14 4 -14 8 0 4 9 8 19 8 11 0 17 -4 15 -8z
m542 -13 c-11 -8 -25 -15 -30 -15 -6 1 0 7 14 15 32 19 40 18 16 0z m107 -22
c-10 -3 -9 -8 2 -19 10 -11 36 -14 95 -13 44 1 84 -1 87 -5 4 -3 -35 -6 -85
-6 -51 0 -92 -3 -92 -6 0 -3 5 -14 10 -25 7 -13 7 -19 0 -19 -5 0 -10 -7 -10
-15 0 -8 -5 -15 -12 -15 -6 0 -19 -7 -28 -15 -15 -14 -17 -12 -18 25 -1 30 2
38 12 34 8 -3 17 -1 21 5 3 7 -3 11 -15 11 -12 0 -18 5 -15 10 4 6 -29 10 -91
10 -54 0 -94 3 -90 7 4 4 46 6 94 4 78 -2 90 0 106 18 11 12 24 21 30 20 6 0
6 -3 -1 -6z m-753 -43 c0 -5 -4 -10 -10 -10 -5 0 -10 5 -10 10 0 6 5 10 10 10
6 0 10 -4 10 -10z m45 0 c3 -5 1 -10 -4 -10 -6 0 -11 5 -11 10 0 6 2 10 4 10
3 0 8 -4 11 -10z m50 0 c3 -5 1 -10 -4 -10 -6 0 -11 5 -11 10 0 6 2 10 4 10 3
0 8 -4 11 -10z m365 -34 c0 -2 -7 -7 -16 -10 -8 -3 -12 -2 -9 4 6 10 25 14 25
6z m98 -48 c-3 -7 -18 -19 -34 -27 -16 -8 -24 -16 -17 -18 6 -2 25 3 42 11 29
15 30 15 51 -11 20 -26 20 -28 3 -34 -10 -3 -20 -3 -23 1 -7 10 -40 9 -40 -2
0 -4 -6 -8 -13 -8 -19 0 -50 37 -42 49 3 6 0 11 -7 11 -16 1 52 39 70 40 8 0
12 -6 10 -12z m259 -34 c15 -31 15 -36 3 -45 -12 -8 -10 -9 7 -4 16 4 23 1 28
-14 8 -27 -1 -42 -22 -34 -10 4 -14 2 -10 -4 4 -6 -3 -13 -14 -16 -14 -4 -30
3 -47 20 l-26 26 22 10 c12 6 22 14 22 19 0 5 -10 3 -22 -3 -18 -10 -24 -8
-35 7 -19 26 -17 32 25 53 50 26 50 26 69 -15z m583 31 c0 -2 -10 -9 -22 -15
-22 -11 -22 -10 -4 4 21 17 26 19 26 11z m-1110 -39 c0 -2 -7 -7 -16 -10 -8
-3 -12 -2 -9 4 6 10 25 14 25 6z m700 -6 c0 -5 -4 -10 -10 -10 -5 0 -10 5 -10
10 0 6 5 10 10 10 6 0 10 -4 10 -10z m-336 -56 c9 -8 16 -17 16 -19 0 -2 -19
-13 -42 -25 -40 -21 -42 -21 -60 -2 -11 10 -16 25 -13 35 6 14 20 19 72 26 6
0 19 -6 27 -15z m-317 -24 c0 -16 -4 -31 -9 -31 -19 -3 -24 -5 -43 -16 -16 -9
-17 -14 -8 -24 10 -10 14 -9 19 4 4 10 17 17 33 17 22 -1 24 -2 9 -11 -25 -14
-23 -33 1 -19 27 14 29 14 46 -20 14 -27 14 -31 0 -36 -8 -3 -15 -10 -15 -15
0 -6 8 -5 19 1 16 8 21 6 26 -11 7 -22 -17 -48 -44 -49 -8 0 -11 -3 -8 -6 10
-11 67 -13 73 -3 3 5 -3 6 -13 3 -15 -5 -16 -4 -3 5 12 8 19 5 32 -12 16 -20
16 -23 1 -34 -23 -17 -34 -16 -27 2 8 20 -15 19 -44 -1 -21 -15 -22 -14 -28
15 -4 17 -10 31 -14 31 -18 0 -19 33 -3 46 28 21 4 16 -33 -7 -34 -21 -48 -16
-18 6 15 11 15 16 -11 63 -15 28 -37 53 -49 57 -17 5 -10 11 41 32 34 14 60
30 57 35 -3 4 -1 8 4 8 5 0 9 -13 9 -30z m643 16 c0 -17 -14 -29 -23 -20 -8 8
3 34 14 34 5 0 9 -6 9 -14z m-844 -11 c-11 -8 -25 -15 -30 -15 -6 1 0 7 14 15
32 19 40 18 16 0z m369 5 c3 -5 1 -10 -4 -10 -6 0 -11 5 -11 10 0 6 2 10 4 10
3 0 8 -4 11 -10z m12 -34 c-3 -7 -2 -17 3 -22 11 -11 26 -102 16 -93 -11 10
-36 111 -30 121 8 13 17 9 11 -6z m169 -2 c-4 -11 -2 -15 8 -11 8 3 16 -2 19
-12 3 -12 -1 -18 -11 -17 -8 0 -17 -4 -19 -11 -3 -9 6 -10 33 -6 29 5 36 3 32
-8 -3 -8 -14 -15 -26 -15 -25 -1 -52 -21 -52 -38 0 -8 2 -8 8 0 11 17 52 24
45 8 -3 -8 -13 -14 -23 -14 -11 0 -22 -4 -25 -10 -3 -5 -12 -10 -18 -9 -9 0
-9 2 0 5 8 4 9 13 1 35 -11 31 -27 36 -59 19 -11 -6 -24 -8 -31 -4 -7 4 0 12
17 21 21 11 24 18 15 26 -8 9 0 17 37 34 59 27 56 26 49 7z m190 -2 c0 -12 -9
-19 -24 -20 -41 -3 -48 11 -11 24 18 7 34 13 34 13 1 1 1 -7 1 -17z m749 -2
c-3 -5 -8 -181 -11 -391 -2 -210 -7 -385 -10 -390 -3 -5 -9 -9 -13 -9 -4 0
-11 159 -14 354 -7 361 -5 389 30 428 17 20 28 24 18 8z m-535 -14 c0 -2 -7
-7 -16 -10 -8 -3 -12 -2 -9 4 6 10 25 14 25 6z m-900 -25 c-12 -24 -13 -44 -1
-37 10 7 85 -123 76 -132 -10 -11 -79 -31 -87 -26 -11 7 -49 82 -46 91 4 13
-35 53 -51 53 -20 0 -8 11 47 42 59 33 77 35 62 9z m1615 -2 c13 -19 -3 -55
-25 -55 -15 0 -20 7 -20 26 0 15 3 30 7 33 10 10 31 8 38 -4z m-675 -50 c-34
-23 -131 -69 -125 -59 7 12 114 69 130 69 6 1 3 -4 -5 -10z m785 -75 c0 -13
-8 -20 -27 -22 -25 -3 -28 0 -28 26 0 16 3 32 7 35 11 12 48 -19 48 -39z
m-1325 6 c21 0 -1 -16 -32 -24 -26 -6 -27 -5 -18 18 5 13 6 28 2 32 -4 5 2 1
14 -9 11 -9 27 -17 34 -17z m1120 11 c14 -27 13 -34 -4 -28 -8 3 -17 1 -20 -6
-3 -9 -8 -8 -15 3 -13 19 -14 33 -1 25 6 -3 7 1 4 9 -9 23 23 20 36 -3z m-210
3 c0 -9 -56 -87 -85 -117 -27 -28 -45 -31 -29 -5 5 7 9 19 11 27 1 8 5 17 10
20 4 3 16 23 25 44 14 28 24 37 43 37 14 0 25 -3 25 -6z m-1397 -51 c-7 -2
-19 -2 -25 0 -7 3 -2 5 12 5 14 0 19 -2 13 -5z m707 -7 c0 -2 -11 -11 -24 -20
-19 -12 -27 -13 -32 -3 -4 6 -4 9 1 5 4 -4 14 -1 22 7 13 14 33 20 33 11z
m-130 -30 c0 -2 -7 -7 -16 -10 -8 -3 -12 -2 -9 4 6 10 25 14 25 6z m55 -6 c-3
-5 2 -10 12 -10 14 0 15 -2 4 -9 -8 -5 -20 -7 -28 -4 -7 3 -31 -6 -53 -21 -22
-14 -43 -26 -46 -26 -4 0 -39 -20 -78 -44 -98 -60 -114 -68 -121 -57 -3 5 43
36 102 67 105 57 205 110 211 113 2 0 0 -3 -3 -9z m1073 -19 c2 -15 0 -21 -7
-17 -6 4 -11 2 -11 -3 0 -6 -7 -11 -15 -11 -16 0 -19 17 -9 45 9 23 38 14 42
-14z m-1512 -7 c1 -10 2 -25 3 -32 1 -7 6 -10 11 -7 6 4 7 11 4 17 -4 5 4 4
17 -3 l24 -12 -30 -13 c-16 -7 -38 -13 -47 -14 -10 0 -18 -4 -18 -9 0 -5 -9
-11 -19 -14 -14 -3 -18 -1 -14 9 3 7 -5 28 -18 46 -12 18 -19 30 -15 27 4 -4
24 2 44 12 43 21 56 20 58 -7z m-139 -6 c-3 -8 -6 -5 -6 6 -1 11 2 17 5 13 3
-3 4 -12 1 -19z m243 -8 c-20 -13 -43 -13 -35 0 3 6 16 10 28 10 18 0 19 -2 7
-10z m325 -25 c-19 -16 -33 -21 -40 -15 -7 6 -15 7 -18 3 -4 -3 -7 -1 -7 6 0
7 6 11 13 8 7 -3 24 1 38 9 38 21 47 15 14 -11z m645 -8 c0 -14 -20 -37 -32
-37 -12 0 -10 24 4 38 16 16 28 15 28 -1z m-840 -1 c0 -2 -7 -7 -16 -10 -8 -3
-12 -2 -9 4 6 10 25 14 25 6z m81 -40 c-6 -8 -23 -17 -37 -20 -14 -4 -22 -11
-19 -16 3 -6 -1 -10 -9 -10 -9 0 -16 -4 -16 -9 0 -5 -7 -11 -15 -15 -9 -3 -15
0 -15 9 0 8 6 15 14 15 8 0 16 4 18 8 4 11 82 61 87 56 2 -2 -1 -10 -8 -18z
m-521 5 c0 -5 -12 -16 -26 -26 -22 -14 -28 -15 -35 -4 -13 20 -11 27 9 32 30
8 52 7 52 -2z m375 -1 c-3 -5 -12 -10 -18 -10 -7 0 -6 4 3 10 19 12 23 12 15
0z m-35 -15 c0 -2 -10 -9 -22 -15 -22 -11 -22 -10 -4 4 21 17 26 19 26 11z
m-310 -45 c0 -4 -11 -13 -25 -20 -22 -12 -27 -11 -39 6 -11 14 -11 20 -3 23 6
2 18 11 26 19 13 12 16 12 28 -4 7 -10 13 -21 13 -24z m282 -7 c-6 -2 -10 -9
-7 -14 3 -4 -3 -14 -15 -21 -11 -7 -20 -16 -20 -20 0 -10 23 -4 50 15 13 9 34
17 45 17 20 0 -25 -28 -156 -96 -84 -43 -113 -44 -38 -1 58 33 92 58 86 63 -1
2 -20 -1 -41 -6 -20 -4 -35 -6 -32 -2 12 11 121 71 131 71 6 -1 4 -3 -3 -6z
m-211 -40 c13 -16 12 -17 -3 -4 -17 13 -22 21 -14 21 2 0 10 -8 17 -17z m84 7
c-3 -5 -12 -10 -18 -10 -7 0 -6 4 3 10 19 12 23 12 15 0z m-81 -60 c8 0 26 4
41 10 19 7 24 7 19 -2 -5 -8 -2 -9 9 -5 19 7 23 -8 5 -16 -7 -3 -30 -13 -51
-22 -22 -9 -36 -11 -32 -6 3 6 1 11 -4 11 -6 0 -11 -7 -11 -15 0 -24 -35 -1
-65 43 -31 46 -31 56 0 50 14 -3 28 -1 31 4 4 5 15 -4 25 -21 10 -17 25 -31
33 -31z m1483 -96 c-9 -10 -38 16 -31 28 4 6 13 4 22 -6 9 -8 13 -19 9 -22z
m73 6 c0 -5 -4 -10 -10 -10 -5 0 -10 5 -10 10 0 6 5 10 10 10 6 0 10 -4 10
-10z m-1443 -86 c5 -15 -26 -46 -41 -41 -6 2 -12 11 -14 20 -3 13 4 17 25 18
25 0 26 1 8 10 -19 8 -19 9 -1 6 11 -1 21 -7 23 -13z m1373 -21 c0 -13 -3 -13
-15 -3 -8 7 -15 16 -15 21 0 5 7 6 15 3 8 -4 15 -13 15 -21z m-1570 7 c0 -5
-2 -10 -4 -10 -3 0 -8 5 -11 10 -3 6 -1 10 4 10 6 0 11 -4 11 -10z m80 2 c0
-5 -7 -9 -15 -9 -8 0 -15 4 -15 9 0 4 7 8 15 8 8 0 15 -4 15 -8z m1542 -14
c-9 -9 -15 -9 -24 0 -9 9 -7 12 12 12 19 0 21 -3 12 -12z m53 2 c-3 -5 -10
-10 -16 -10 -5 0 -9 5 -9 10 0 6 7 10 16 10 8 0 12 -4 9 -10z"/>
<path d="M2050 1760 c-9 -6 -10 -10 -3 -10 6 0 15 5 18 10 8 12 4 12 -15 0z"/>
<path d="M1643 1598 c-13 -6 -23 -15 -23 -20 0 -10 36 7 45 22 7 12 7 12 -22
-2z"/>
<path d="M1711 1450 c-13 -11 -21 -20 -18 -20 14 0 57 24 57 32 0 13 -13 9
-39 -12z"/>
<path d="M1560 1350 c-9 -6 -10 -10 -3 -10 6 0 15 5 18 10 8 12 4 12 -15 0z"/>
<path d="M1404 1334 c-18 -14 -18 -15 4 -4 12 6 22 13 22 15 0 8 -5 6 -26 -11z"/>
<path d="M1634 1305 c-10 -8 -14 -15 -8 -15 5 0 19 7 30 15 10 8 14 15 8 15
-5 0 -19 -7 -30 -15z"/>
<path d="M1300 1450 c-8 -5 -10 -10 -5 -10 6 0 17 5 25 10 8 5 11 10 5 10 -5
0 -17 -5 -25 -10z"/>
<path d="M1095 1190 c-3 -6 1 -7 9 -4 18 7 21 14 7 14 -6 0 -13 -4 -16 -10z"/>
<path d="M1145 1180 c-3 -5 -1 -10 4 -10 6 0 11 5 11 10 0 6 -2 10 -4 10 -3 0
-8 -4 -11 -10z"/>
<path d="M1136 1125 c-25 -19 -9 -19 24 0 14 8 19 14 10 14 -8 0 -24 -6 -34
-14z"/>
<path d="M985 1050 c-8 -13 5 -13 25 0 13 8 13 10 -2 10 -9 0 -20 -4 -23 -10z"/>
<path d="M465 990 c-3 -5 -1 -10 4 -10 6 0 11 5 11 10 0 6 -2 10 -4 10 -3 0
-8 -4 -11 -10z"/>
<path d="M584 805 c-18 -14 -18 -14 0 -15 15 0 16 -3 6 -15 -10 -12 -10 -15 3
-15 9 0 14 7 12 18 -1 9 2 23 8 30 13 17 -5 15 -29 -3z"/>
<path d="M600 370 c0 -5 4 -10 9 -10 6 0 13 5 16 10 3 6 -1 10 -9 10 -9 0 -16
-4 -16 -10z"/>
<path d="M2086 2032 c-3 -5 1 -13 10 -16 23 -9 34 -7 34 5 0 5 -5 7 -11 3 -6
-3 -15 -1 -19 6 -5 8 -10 8 -14 2z"/>
<path d="M2020 2000 c0 -5 5 -10 10 -10 6 0 10 5 10 10 0 6 -4 10 -10 10 -5 0
-10 -4 -10 -10z"/>
<path d="M1826 1908 c-9 -5 -16 -14 -16 -20 0 -7 7 -5 18 4 9 9 23 13 30 11 6
-3 12 -1 12 5 0 11 -24 11 -44 0z"/>
<path d="M2190 1880 c-13 -8 -13 -10 2 -10 9 0 20 5 23 10 8 13 -5 13 -25 0z"/>
<path d="M2316 1693 c-6 -14 -5 -15 5 -6 7 7 10 15 7 18 -3 3 -9 -2 -12 -12z"/>
<path d="M2306 1433 c-4 -4 -24 -8 -45 -9 -39 -1 -101 -23 -101 -36 0 -12 13
-10 35 6 22 14 77 27 70 16 -2 -3 -22 -12 -44 -20 -23 -7 -41 -16 -41 -20 0
-4 -10 -12 -22 -18 -18 -8 -2 -11 77 -11 89 0 98 1 81 14 -17 13 -17 15 -3 21
11 4 17 17 17 35 0 28 -9 37 -24 22z"/>
<path d="M775 1360 c-3 -5 -1 -10 4 -10 6 0 11 5 11 10 0 6 -2 10 -4 10 -3 0
-8 -4 -11 -10z"/>
<path d="M2060 1349 c0 -5 5 -7 10 -4 6 3 10 8 10 11 0 2 -4 4 -10 4 -5 0 -10
-5 -10 -11z"/>
<path d="M2005 1330 c-3 -5 -1 -10 4 -10 6 0 11 5 11 10 0 6 -2 10 -4 10 -3 0
-8 -4 -11 -10z"/>
<path d="M705 1320 c-3 -5 -1 -10 4 -10 6 0 11 5 11 10 0 6 -2 10 -4 10 -3 0
-8 -4 -11 -10z"/>
<path d="M1965 1310 c-3 -5 -2 -10 4 -10 5 0 13 5 16 10 3 6 2 10 -4 10 -5 0
-13 -4 -16 -10z"/>
<path d="M1910 1250 c-9 -6 -10 -10 -3 -10 6 0 15 5 18 10 8 12 4 12 -15 0z"/>
<path d="M525 1200 c-3 -5 -1 -10 4 -10 6 0 11 5 11 10 0 6 -2 10 -4 10 -3 0
-8 -4 -11 -10z"/>
<path d="M465 1190 c-3 -5 -2 -10 4 -10 5 0 13 5 16 10 3 6 2 10 -4 10 -5 0
-13 -4 -16 -10z"/>
<path d="M1664 1134 c-18 -14 -18 -14 6 -3 31 14 36 19 24 19 -6 0 -19 -7 -30
-16z"/>
<path d="M1588 1103 c-10 -2 -18 -9 -18 -14 0 -6 7 -6 18 -1 9 5 24 12 32 15
13 5 13 5 0 5 -8 0 -23 -2 -32 -5z"/>
<path d="M298 883 c7 -3 16 -2 19 1 4 3 -2 6 -13 5 -11 0 -14 -3 -6 -6z"/>
</g>
</svg>
